<?xml version="1.0" standalone="no"?>
<!DOCTYPE svg PUBLIC "-//W3C//DTD SVG 20010904//EN"
 "http://www.w3.org/TR/2001/REC-SVG-20010904/DTD/svg10.dtd">
<svg version="1.0" xmlns="http://www.w3.org/2000/svg"
 width="640.000000pt" height="640.000000pt" viewBox="0 0 640.000000 640.000000"
 preserveAspectRatio="xMidYMid meet">
<metadata>
Created by potrace 1.14, written by Peter Selinger 2001-2017
</metadata>
<g transform="translate(0.000000,640.000000) scale(0.100000,-0.100000)"
fill="#000000" stroke="none">
<path d="M2915 5921 c-4 -3 -68 -10 -147 -14 -16 -1 -28 -4 -28 -7 0 -3 -15
-6 -33 -7 -29 -2 -63 -8 -77 -13 -3 -1 -17 -2 -32 -2 -16 -1 -28 -5 -28 -10 0
-4 -11 -6 -25 -4 -14 3 -25 0 -25 -5 0 -5 -3 -8 -7 -7 -5 1 -24 -1 -43 -5 -19
-4 -44 -9 -55 -11 -34 -7 -297 -96 -326 -111 -14 -8 -29 -11 -33 -8 -3 4 -6 1
-6 -5 0 -7 -4 -12 -9 -12 -5 0 -22 -5 -38 -12 -15 -6 -31 -11 -35 -10 -5 1 -8
-2 -8 -6 0 -8 -92 -50 -97 -44 -2 1 -12 -7 -23 -18 -12 -12 -25 -18 -30 -15
-6 4 -10 2 -10 -4 0 -6 -11 -13 -25 -17 -14 -3 -25 -10 -25 -14 0 -5 -9 -11
-19 -15 -11 -3 -49 -26 -85 -50 -36 -24 -66 -41 -66 -37 0 4 -5 -1 -11 -11 -6
-9 -14 -15 -20 -12 -5 4 -9 2 -9 -3 0 -5 -22 -24 -50 -43 -27 -19 -50 -37 -50
-41 0 -5 -5 -8 -11 -8 -7 0 -20 -10 -30 -22 -11 -11 -19 -19 -19 -16 0 27
-342 -321 -430 -437 -16 -22 -35 -47 -42 -55 -7 -8 -12 -18 -10 -22 1 -5 -2
-8 -8 -8 -5 0 -19 -18 -30 -40 -11 -22 -24 -40 -29 -40 -5 0 -14 -13 -21 -30
-7 -16 -16 -30 -20 -30 -4 0 -10 -8 -13 -17 -8 -24 -40 -76 -52 -85 -5 -4 -6
-8 -2 -8 5 0 0 -12 -11 -27 -16 -25 -26 -44 -34 -71 -1 -4 -10 -16 -20 -26 -9
-10 -15 -23 -12 -28 3 -4 0 -8 -6 -8 -6 0 -9 -4 -5 -9 3 -5 1 -12 -5 -16 -5
-3 -10 -12 -10 -20 0 -8 -10 -31 -22 -51 -12 -21 -24 -47 -25 -58 -2 -11 -8
-25 -13 -30 -6 -6 -10 -18 -10 -28 0 -10 -5 -18 -11 -18 -5 0 -8 -4 -5 -9 3
-5 -1 -22 -9 -37 -8 -16 -15 -37 -15 -46 0 -10 -4 -18 -8 -18 -4 0 -8 -8 -9
-17 -1 -25 -11 -61 -18 -74 -4 -5 -8 -20 -10 -32 -2 -12 -10 -47 -19 -79 -8
-31 -17 -67 -20 -80 -3 -12 -7 -34 -10 -48 -3 -14 -9 -45 -12 -70 -3 -25 -8
-48 -11 -52 -2 -5 2 -8 9 -8 9 0 10 -2 2 -8 -19 -11 -37 -198 -37 -382 -1
-184 14 -367 39 -485 4 -16 8 -41 9 -55 2 -14 4 -25 5 -25 2 0 9 -34 13 -65 2
-14 7 -31 11 -38 4 -7 5 -16 1 -21 -3 -5 -1 -12 4 -15 5 -3 12 -23 17 -43 8
-41 10 -49 14 -60 2 -5 4 -12 5 -18 2 -9 4 -17 22 -62 3 -10 5 -21 5 -25 -1
-5 3 -8 9 -8 5 0 8 -4 4 -9 -5 -9 11 -53 36 -103 5 -10 9 -25 9 -33 0 -8 5
-15 10 -15 6 0 10 -11 10 -25 0 -14 5 -25 10 -25 6 0 10 -5 10 -11 0 -16 82
-184 91 -187 5 -2 9 -12 9 -23 0 -10 4 -19 9 -19 5 0 15 -15 22 -32 7 -18 21
-42 31 -52 10 -11 18 -26 18 -33 0 -7 3 -13 8 -13 4 0 18 -20 31 -45 13 -25
28 -45 32 -45 5 0 9 -5 9 -10 0 -6 9 -20 20 -32 11 -12 20 -28 20 -35 0 -8 5
-11 10 -8 5 3 10 1 10 -4 0 -11 20 -38 58 -77 13 -13 20 -24 16 -24 -4 0 5
-10 19 -23 15 -12 27 -28 27 -35 0 -7 5 -10 10 -7 6 3 10 1 10 -5 0 -10 164
-176 239 -240 57 -49 97 -83 113 -95 32 -26 107 -81 124 -92 11 -7 35 -24 54
-38 19 -13 47 -30 63 -36 15 -6 27 -14 27 -18 0 -3 17 -15 37 -26 21 -11 49
-26 62 -34 13 -9 31 -16 39 -17 8 -2 18 -6 21 -11 11 -15 68 -43 75 -36 3 3 6
2 6 -4 0 -10 36 -26 53 -24 4 1 7 -4 7 -10 0 -5 4 -8 9 -4 5 3 16 -2 25 -10 8
-8 19 -15 23 -14 4 1 22 -4 38 -11 17 -7 33 -13 38 -12 4 1 7 -3 7 -10 0 -6 2
-9 6 -6 3 3 27 -3 53 -13 27 -10 51 -15 55 -12 3 4 6 0 6 -7 0 -7 3 -11 6 -7
4 3 19 0 35 -9 16 -8 29 -12 29 -8 0 4 7 1 15 -6 8 -7 15 -10 15 -6 0 3 15 0
34 -8 19 -8 37 -12 40 -9 2 3 11 1 18 -3 7 -4 19 -9 28 -10 8 -1 30 -7 48 -12
17 -6 32 -8 32 -4 0 3 5 1 12 -6 8 -8 17 -8 31 -1 14 8 18 8 13 0 -5 -7 3 -11
18 -12 34 -2 65 -6 69 -9 5 -5 71 -13 212 -26 104 -9 359 -9 455 1 41 4 93 8
115 10 46 4 95 14 107 21 4 3 8 -1 8 -8 0 -10 2 -10 9 0 4 8 11 13 15 12 3 -1
37 4 74 11 80 16 81 16 87 19 6 3 9 4 60 14 22 4 44 11 50 14 5 4 12 7 15 7
20 3 77 19 90 25 19 9 80 30 102 35 9 2 29 10 46 19 16 8 32 12 36 9 3 -4 6
-1 6 6 0 7 4 10 9 6 5 -3 12 -1 16 5 4 6 11 8 16 5 5 -4 9 -1 9 6 0 7 3 9 7 6
3 -4 12 -2 20 4 7 6 13 8 13 5 0 -4 7 0 16 8 8 9 20 14 25 11 5 -4 9 -2 9 2 0
5 20 17 45 27 25 11 45 23 45 28 0 4 3 7 8 6 13 -4 52 13 52 23 0 5 5 9 11 9
18 0 179 100 179 111 0 6 4 8 8 5 5 -3 18 4 30 14 12 11 24 20 27 20 9 0 138
101 153 119 7 9 15 15 18 13 4 -2 54 41 99 86 12 12 27 22 34 22 6 0 11 4 11
9 0 6 11 22 25 37 14 15 25 23 25 19 0 -4 9 4 20 18 11 14 35 41 53 60 17 18
52 58 77 87 25 30 53 62 63 72 9 10 15 18 12 18 -5 0 19 31 47 61 9 9 14 20
11 23 -3 3 2 8 11 12 9 3 16 13 16 20 0 8 7 17 15 20 8 4 15 11 15 16 0 6 15
31 33 57 18 25 40 61 48 79 7 17 18 32 22 32 5 0 5 4 2 10 -3 5 -1 10 4 10 6
0 11 4 11 9 0 5 16 37 34 70 19 34 32 61 28 61 -4 0 2 7 12 15 11 8 17 15 13
15 -4 0 -3 9 3 20 7 12 16 18 23 13 8 -5 8 -2 -1 9 -10 13 -10 18 1 30 7 7 12
19 9 26 -2 6 3 15 12 18 8 3 12 12 9 20 -3 8 0 14 7 14 6 0 8 4 5 10 -3 6 1 7
10 4 12 -5 14 -2 8 12 -6 17 -5 18 13 4 17 -13 18 -13 8 0 -15 20 -25 62 -13
54 9 -5 13 9 10 35 -2 7 2 10 8 7 5 -4 13 -1 17 5 4 8 3 9 -4 5 -16 -9 -15 3
3 53 8 22 12 41 8 41 -3 0 -1 6 5 12 9 12 45 145 56 208 3 14 5 25 6 25 2 0 6
22 14 70 4 22 9 54 12 70 5 31 8 59 21 185 11 113 5 555 -7 555 -1 0 -4 14 -5
30 -4 38 -13 100 -15 100 -1 0 -3 16 -5 35 -4 35 -12 75 -15 75 -2 0 -5 14
-14 65 -9 48 -11 53 -17 65 -4 6 -5 18 -4 28 2 9 0 17 -5 17 -4 0 -10 12 -13
28 -9 48 -16 76 -25 97 -5 11 -15 38 -22 60 -7 22 -20 56 -28 75 -9 19 -17 40
-18 45 -6 25 -50 120 -56 123 -5 2 -8 9 -8 15 0 12 -40 97 -50 107 -3 3 -16
28 -30 57 -14 28 -28 49 -32 46 -5 -2 -8 5 -8 16 0 12 -5 21 -12 21 -6 0 -9 3
-5 6 3 3 2 11 -4 18 -5 6 -28 40 -52 76 -70 106 -112 163 -154 207 -12 13 -20
23 -17 23 5 0 -1 7 -41 53 -14 15 -25 24 -25 20 -1 -4 -6 2 -13 14 -16 29
-122 138 -200 206 -33 29 -70 62 -83 75 -13 13 -24 20 -24 17 0 -3 -11 5 -24
19 -13 15 -26 26 -30 26 -6 0 -35 23 -61 48 -8 6 -16 12 -20 12 -4 0 -13 6
-20 13 -32 28 -45 37 -53 37 -4 0 -18 9 -30 20 -12 12 -22 17 -22 13 0 -4 -4
-3 -8 2 -9 13 -40 33 -74 48 -16 6 -28 15 -28 20 0 4 -4 5 -10 2 -5 -3 -10 -2
-10 4 0 5 -10 13 -22 17 -12 3 -28 13 -36 20 -7 8 -18 12 -23 9 -5 -4 -9 -1
-9 4 0 6 -5 11 -11 11 -5 0 -46 18 -90 40 -43 21 -79 37 -79 35 0 -2 -21 6
-47 20 -26 13 -51 21 -55 19 -4 -3 -8 0 -8 7 0 7 -3 10 -6 6 -4 -3 -19 0 -35
9 -16 8 -31 14 -34 14 -3 0 -6 0 -7 1 -2 0 -14 3 -28 5 -14 3 -26 9 -28 14 -2
6 -12 10 -23 10 -10 0 -58 11 -105 25 -48 14 -89 23 -92 20 -3 -3 -10 -1 -16
4 -6 5 -27 11 -46 14 -19 3 -46 8 -60 11 -14 3 -45 8 -70 11 -25 3 -61 7 -80
10 -19 3 -62 8 -95 10 -33 2 -62 5 -65 6 -10 4 -401 5 -405 0z"/>
</g>
</svg>
