<svg width="26" height="35" viewBox="0 0 26 35" fill="none" xmlns="http://www.w3.org/2000/svg">
<path d="M8.50001 18.9167V33.6667H6.16667V18.9167V18.5355L5.79903 18.4345C4.48492 18.0738 3.38487 17.3551 2.48961 16.2659C1.6067 15.1917 1.16564 13.9438 1.16667 12.5004V12.5V1.33338H3.50001V12.5V13H4.00001H5.66667H6.16667V12.5V1.33338H8.50001V12.5V13H9.00001H10.6667H11.1667V12.5V1.33338H13.5V12.5C13.5 13.9436 13.0584 15.1916 12.1754 16.2659C11.2801 17.3552 10.1805 18.0739 8.86755 18.4346L8.50001 18.5355V18.9167ZM10.6667 12.5V12L9.00001 1.33338V12V12.5H9.50001H10.1667H10.6667ZM6.16667 0.833374H8.50001H6.16667ZM5.66667 12V1.33338H4.00001V12V12.5H4.50001H5.16667H5.66667V12ZM1.16667 0.833374H3.50001H1.16667ZM22.3333 20.3334H17.8333V9.16671C17.8333 6.99333 18.5937 5.15508 20.1252 3.6236C21.5378 2.21099 23.2109 1.45493 25.1667 1.34689V33.6667H22.8333V20.8334V20.3334H22.3333Z" fill="#63F49E" stroke="black"/>
</svg>
